2019-11-30 08:25:09.731
Emby Server version: 4.3.0.30

App: Emby Web 4.3.0.30
Chrome

http://0.0.0.0:8096/emby/videos/348/hls1/main/99.ts?DeviceId=TW96aWxsYS81LjAgKFgxMTsgTGludXggeDg2XzY0KSBBcHBsZVdlYktpdC81MzcuMzYgKEtIVE1MLCBsaWtlIEdlY2tvKSBDaHJvbWUvNzguMC4zOTA0LjEwOCBTYWZhcmkvNTM3LjM2fDE1NzQ3NDcwNjQzMzE1&MediaSourceId=1b271311909a0c95fbd2da2cc2c33093&PlaySessionId=33a124f41b1e4383bbde9e82d012a4ec&api_key=6bb02ad174344c63bc70e5a43d52ea13&VideoCodec=h264&AudioCodec=mp3,aac&VideoBitrate=139616000&AudioBitrate=384000&AudioStreamIndex=1&TranscodingMaxAudioChannels=2&SegmentContainer=ts&MinSegments=1&BreakOnNonKeyFrames=True&ManifestSubtitles=vtt&h264-profile=high,main,baseline,constrainedbaseline,high10&h264-level=51&TranscodeReasons=AudioCodecNotSupported

{"Protocol":"File","Id":"1b271311909a0c95fbd2da2cc2c33093","Path":"/mnt/share/vinny/files/tesers/12.Her贸is.2018.1080p.BluRay.6CH.x264.DUAL-WWW.BLUDV.COM.mkv","Type":"Default","Container":"mkv","Size":2612661834,"Name":"12.Her贸is.2018.1080p.BluRay.6CH.x264.DUAL-WWW.BLUDV.COM","IsRemote":false,"RunTimeTicks":77919990000,"SupportsTranscoding":true,"SupportsDirectStream":true,"SupportsDirectPlay":true,"IsInfiniteStream":false,"RequiresOpening":false,"RequiresClosing":false,"RequiresLooping":false,"SupportsProbing":false,"MediaStreams":[{"Codec":"h264","TimeBase":"1/1000","CodecTimeBase":"1001/48000","VideoRange":"SDR","DisplayTitle":"1080p H264","NalLengthSize":"4","IsInterlaced":false,"IsAVC":true,"BitRate":2682404,"BitDepth":8,"RefFrames":1,"IsDefault":true,"IsForced":false,"Height":800,"Width":1920,"AverageFrameRate":23.9760246,"RealFrameRate":23.9760246,"Profile":"High","Type":"Video","AspectRatio":"2.40:1","Index":0,"IsExternal":false,"IsTextSubtitleStream":false,"SupportsExternalStream":false,"Protocol":"File","PixelFormat":"yuv420p","Level":41,"IsAnamorphic":false},{"Codec":"ac3","Language":"por","TimeBase":"1/1000","CodecTimeBase":"1/48000","DisplayTitle":"Portuguese Dolby Digital 5.1 (Default)","DisplayLanguage":"Portuguese","IsInterlaced":false,"ChannelLayout":"5.1","BitRate":384000,"Channels":6,"SampleRate":48000,"IsDefault":true,"IsForced":true,"Type":"Audio","Index":1,"IsExternal":false,"IsTextSubtitleStream":false,"SupportsExternalStream":false,"Protocol":"File","Level":0},{"Codec":"aac","Language":"eng","TimeBase":"1/1000","CodecTimeBase":"1/48000","DisplayTitle":"English AAC stereo","DisplayLanguage":"English","IsInterlaced":false,"ChannelLayout":"stereo","BitRate":192000,"Channels":2,"SampleRate":48000,"IsDefault":false,"IsForced":false,"Profile":"LC","Type":"Audio","Index":2,"IsExternal":false,"IsTextSubtitleStream":false,"SupportsExternalStream":false,"Protocol":"File","Level":0},{"Codec":"mjpeg","ColorSpace":"bt470bg","TimeBase":"1/90000","CodecTimeBase":"0/1","IsInterlaced":false,"BitDepth":8,"RefFrames":1,"IsDefault":false,"IsForced":false,"Height":321,"Width":236,"RealFrameRate":90000,"Profile":"Baseline","Type":"EmbeddedImage","Index":3,"IsExternal":false,"IsTextSubtitleStream":false,"SupportsExternalStream":false,"Protocol":"File","PixelFormat":"yuvj420p","Level":-99,"IsAnamorphic":false}],"Formats":[],"Bitrate":2682404,"RequiredHttpHeaders":{},"ReadAtNativeFramerate":false}

User policy for vinny: EnablePlaybackRemuxing: True EnableVideoPlaybackTranscoding: True EnableAudioPlaybackTranscoding: True

/bin/ffmpeg -loglevel +timing -ss 00:09:54.000  -f matroska -noaccurate_seek -i file:"/mnt/share/vinny/files/tesers/12.Her贸is.2018.1080p.BluRay.6CH.x264.DUAL-WWW.BLUDV.COM.mkv" -threads 0 -map 0:0 -map 0:1 -sn -c:v:0 copy -bsf:v h264_mp4toannexb -copyts -vsync -1 -codec:a:0 libmp3lame -metadata:s:a:0 language=por -disposition:a:0 default -ac:a:0 2 -ab:a:0 192000 -af:a:0 "volume=2" -f segment -max_delay 5000000 -avoid_negative_ts disabled -map_metadata -1 -map_chapters -1 -start_at_zero -segment_time 6 -segment_time_delta -594 -individual_header_trailer 0 -break_non_keyframes 1 -segment_format mpegts -segment_write_temp 1 -segment_list_type m3u8 -segment_start_number 99 -segment_list "/config/transcoding-temp/825ed952f16ba7f6e6c8239b8afdc327.m3u8" -y "/config/transcoding-temp/825ed952f16ba7f6e6c8239b8afdc327%d.ts"

08:25:09.811 ffmpeg version 4.3.0-emby_2019_11_09 Copyright (c) 2000-2019 the FFmpeg developers and softworkz for Emby LLC
08:25:09.811   built with gcc 8.3.0 (crosstool-NG 1.24.0)
08:25:09.811 Execution Date: 2019-11-30 08:25:09
08:25:09.844 Input #0, matroska,webm, from 'file:/mnt/share/vinny/files/tesers/12.Her贸is.2018.1080p.BluRay.6CH.x264.DUAL-WWW.BLUDV.COM.mkv':
08:25:09.844   Metadata:
08:25:09.844     title           : BAIXE | BLUDV.COM
08:25:09.844     encoder         : libebml v1.3.1 + libmatroska v1.4.2
08:25:09.844     creation_time   : 2018-06-13T15:37:10.000000Z
08:25:09.844   Duration: 02:09:52.00, start: 0.000000, bitrate: 2682 kb/s
08:25:09.844     Stream #0:0: Video: h264 (High), yuv420p(progressive), 1920x800 [SAR 1:1 DAR 12:5], Level 41, 23.98 fps, 23.98 tbr, 1k tbn, 47.95 tbc (default)
08:25:09.844     Metadata:
08:25:09.844       BPS             : 2149007
08:25:09.844       BPS-eng         : 2149007
08:25:09.844       DURATION        : 02:09:51.951000000
08:25:09.844       DURATION-eng    : 02:09:51.951000000
08:25:09.844       NUMBER_OF_FRAMES: 186820
08:25:09.844       NUMBER_OF_FRAMES-eng: 186820
08:25:09.844       NUMBER_OF_BYTES : 2093120373
08:25:09.844       NUMBER_OF_BYTES-eng: 2093120373
08:25:09.845     Stream #0:1(por): Audio: ac3, 48000 Hz, 5.1(side), fltp, 384 kb/s (default) (forced)
08:25:09.845     Metadata:
08:25:09.845       BPS             : 384000
08:25:09.845       BPS-eng         : 384000
08:25:09.845       DURATION        : 02:09:51.168000000
08:25:09.845       DURATION-eng    : 02:09:51.168000000
08:25:09.845       NUMBER_OF_FRAMES: 243474
08:25:09.845       NUMBER_OF_FRAMES-eng: 243474
08:25:09.845       NUMBER_OF_BYTES : 373976064
08:25:09.845       NUMBER_OF_BYTES-eng: 373976064
08:25:09.845     Stream #0:2(eng): Audio: aac (LC), 48000 Hz, stereo, fltp
08:25:09.845     Metadata:
08:25:09.845       BPS             : 146875
08:25:09.845       BPS-eng         : 146875
08:25:09.845       DURATION        : 02:09:51.999000000
08:25:09.845       DURATION-eng    : 02:09:51.999000000
08:25:09.845       NUMBER_OF_FRAMES: 365250
08:25:09.845       NUMBER_OF_FRAMES-eng: 365250
08:25:09.845       NUMBER_OF_BYTES : 143057157
08:25:09.845       NUMBER_OF_BYTES-eng: 143057157
08:25:09.845     Stream #0:3: Video: mjpeg (Baseline), yuvj420p(pc, bt470bg/unknown/unknown), 236x321, 90k tbr, 90k tbn, 90k tbc (attached pic)
08:25:09.845     Metadata:
08:25:09.845       filename        : cover.jpg
08:25:09.845       mimetype        : image/jpeg
08:25:09.845 Stream mapping:
08:25:09.846   Stream #0:0 -> #0:0 (copy)
08:25:09.846   Stream #0:1 -> #0:1 (ac3 (native) -> mp3 (libmp3lame))
08:25:09.846 Press [q] to stop, [?] for help
08:25:09.855 [segment @ 0x85b500] Opening '/config/transcoding-temp/825ed952f16ba7f6e6c8239b8afdc32799.ts.tmp' for writing
08:25:09.856 Output #0, segment, to '/config/transcoding-temp/825ed952f16ba7f6e6c8239b8afdc327%d.ts':
08:25:09.856   Metadata:
08:25:09.856     encoder         : Lavf58.31.104
08:25:09.856     Stream #0:0: Video: h264 (High), yuv420p(progressive), 1920x800 [SAR 1:1 DAR 12:5], q=2-31, Level 41, 23.98 fps, 23.98 tbr, 90k tbn, 23.98 tbc (default)
08:25:09.856     Stream #0:1(por): Audio: mp3 (libmp3lame), 48000 Hz, stereo, fltp, 192 kb/s (default)
08:25:09.856     Metadata:
08:25:09.856       encoder         : Lavc58.56.101 libmp3lame
08:25:10.208 [segment @ 0x85b500] Opening '/config/transcoding-temp/825ed952f16ba7f6e6c8239b8afdc327.m3u8.tmp' for writing
08:25:10.209 SegmentComplete=video:0 Index=99 Start=0.000000 End=599.974000 Duration=599.974000 offset_pts=0 start_pts=0 Frames=167 filename=825ed952f16ba7f6e6c8239b8afdc32799.ts
08:25:10.209 [segment @ 0x85b500] Opening '/config/transcoding-temp/825ed952f16ba7f6e6c8239b8afdc327100.ts.tmp' for writing
08:25:10.347 frame=  215 fps=0.0 q=-1.0 size=    1354kB time=00:10:02.09 bitrate=  18.4kbits/s throttle=off speed=1.2e+03x    
08:25:10.578 [segment @ 0x85b500] Opening '/config/transcoding-temp/825ed952f16ba7f6e6c8239b8afdc327.m3u8.tmp' for writing
08:25:10.579 SegmentComplete=video:0 Index=100 Start=600.100000 End=606.021000 Duration=5.921000 offset_pts=0 start_pts=600100000 Frames=145 filename=825ed952f16ba7f6e6c8239b8afdc327100.ts
08:25:10.579 [segment @ 0x85b500] Opening '/config/transcoding-temp/825ed952f16ba7f6e6c8239b8afdc327101.ts.tmp' for writing
08:25:10.827 [segment @ 0x85b500] Opening '/config/transcoding-temp/825ed952f16ba7f6e6c8239b8afdc327.m3u8.tmp' for writing
08:25:10.828 SegmentComplete=video:0 Index=101 Start=606.147000 End=612.027000 Duration=5.880000 offset_pts=0 start_pts=606147000 Frames=144 filename=825ed952f16ba7f6e6c8239b8afdc327101.ts
08:25:10.828 [segment @ 0x85b500] Opening '/config/transcoding-temp/825ed952f16ba7f6e6c8239b8afdc327102.ts.tmp' for writing
08:25:10.847 frame=  471 fps=471 q=-1.0 size=    3006kB time=00:10:12.72 bitrate=  40.2kbits/s throttle=off speed= 612x    
08:25:11.079 [segment @ 0x85b500] Opening '/config/transcoding-temp/825ed952f16ba7f6e6c8239b8afdc327.m3u8.tmp' for writing
08:25:11.079 SegmentComplete=video:0 Index=102 Start=612.112000 End=617.992000 Duration=5.880000 offset_pts=0 start_pts=612112000 Frames=143 filename=825ed952f16ba7f6e6c8239b8afdc327102.ts
08:25:11.079 [segment @ 0x85b500] Opening '/config/transcoding-temp/825ed952f16ba7f6e6c8239b8afdc327103.ts.tmp' for writing
08:25:11.348 frame=  733 fps=488 q=-1.0 size=    4951kB time=00:10:23.52 bitrate=  65.0kbits/s throttle=off speed= 415x    
08:25:11.370 [segment @ 0x85b500] Opening '/config/transcoding-temp/825ed952f16ba7f6e6c8239b8afdc327.m3u8.tmp' for writing
08:25:11.371 SegmentComplete=video:0 Index=103 Start=618.118000 End=623.914000 Duration=5.796000 offset_pts=0 start_pts=618118000 Frames=142 filename=825ed952f16ba7f6e6c8239b8afdc327103.ts
08:25:11.371 [segment @ 0x85b500] Opening '/config/transcoding-temp/825ed952f16ba7f6e6c8239b8afdc327104.ts.tmp' for writing
08:25:11.681 [segment @ 0x85b500] Opening '/config/transcoding-temp/825ed952f16ba7f6e6c8239b8afdc327.m3u8.tmp' for writing
08:25:11.682 SegmentComplete=video:0 Index=104 Start=624.040000 End=630.004000 Duration=5.964000 offset_pts=0 start_pts=624040000 Frames=146 filename=825ed952f16ba7f6e6c8239b8afdc327104.ts
08:25:11.682 [segment @ 0x85b500] Opening '/config/transcoding-temp/825ed952f16ba7f6e6c8239b8afdc327105.ts.tmp' for writing
08:25:11.849 frame=  983 fps=491 q=-1.0 size=    7049kB time=00:10:33.94 bitrate=  91.1kbits/s throttle=off speed= 317x    
08:25:11.939 [segment @ 0x85b500] Opening '/config/transcoding-temp/825ed952f16ba7f6e6c8239b8afdc327.m3u8.tmp' for writing
08:25:11.939 SegmentComplete=video:0 Index=105 Start=630.130000 End=636.010000 Duration=5.880000 offset_pts=0 start_pts=630130000 Frames=144 filename=825ed952f16ba7f6e6c8239b8afdc327105.ts
08:25:11.939 [segment @ 0x85b500] Opening '/config/transcoding-temp/825ed952f16ba7f6e6c8239b8afdc327106.ts.tmp' for writing
08:25:12.214 [segment @ 0x85b500] Opening '/config/transcoding-temp/825ed952f16ba7f6e6c8239b8afdc327.m3u8.tmp' for writing
08:25:12.215 SegmentComplete=video:0 Index=106 Start=636.136000 End=642.016000 Duration=5.880000 offset_pts=0 start_pts=636136000 Frames=144 filename=825ed952f16ba7f6e6c8239b8afdc327106.ts
08:25:12.215 [segment @ 0x85b500] Opening '/config/transcoding-temp/825ed952f16ba7f6e6c8239b8afdc327107.ts.tmp' for writing
08:25:12.351 frame= 1249 fps=499 q=-1.0 size=    9091kB time=00:10:45.20 bitrate= 115.4kbits/s throttle=off speed= 258x    
08:25:12.483 [segment @ 0x85b500] Opening '/config/transcoding-temp/825ed952f16ba7f6e6c8239b8afdc327.m3u8.tmp' for writing
08:25:12.484 SegmentComplete=video:0 Index=107 Start=642.142000 End=647.980000 Duration=5.838000 offset_pts=0 start_pts=642142000 Frames=143 filename=825ed952f16ba7f6e6c8239b8afdc327107.ts
08:25:12.484 [segment @ 0x85b500] Opening '/config/transcoding-temp/825ed952f16ba7f6e6c8239b8afdc327108.ts.tmp' for writing
08:25:12.741 [segment @ 0x85b500] Opening '/config/transcoding-temp/825ed952f16ba7f6e6c8239b8afdc327.m3u8.tmp' for writing
08:25:12.742 SegmentComplete=video:0 Index=108 Start=648.106000 End=653.986000 Duration=5.880000 offset_pts=0 start_pts=648106000 Frames=144 filename=825ed952f16ba7f6e6c8239b8afdc327108.ts
08:25:12.742 [segment @ 0x85b500] Opening '/config/transcoding-temp/825ed952f16ba7f6e6c8239b8afdc327109.ts.tmp' for writing
08:25:12.850 frame= 1518 fps=505 q=-1.0 size=   11070kB time=00:10:56.26 bitrate= 138.2kbits/s throttle=off speed= 219x    
08:25:13.035 [segment @ 0x85b500] Opening '/config/transcoding-temp/825ed952f16ba7f6e6c8239b8afdc327.m3u8.tmp' for writing
08:25:13.036 SegmentComplete=video:0 Index=109 Start=654.112000 End=659.950000 Duration=5.838000 offset_pts=0 start_pts=654112000 Frames=143 filename=825ed952f16ba7f6e6c8239b8afdc327109.ts
08:25:13.036 [segment @ 0x85b500] Opening '/config/transcoding-temp/825ed952f16ba7f6e6c8239b8afdc327110.ts.tmp' for writing
08:25:13.080 

[q] command received. Exiting.

08:25:13.082 08:25:13.082 [segment @ 0x85b500] Opening '/config/transcoding-temp/825ed952f16ba7f6e6c8239b8afdc327.m3u8.tmp' for writing
08:25:13.082 SegmentComplete=video:0 Index=110 Start=660.076000 End=661.285000 Duration=1.209000 offset_pts=0 start_pts=660076000 Frames=32 filename=825ed952f16ba7f6e6c8239b8afdc327110.ts
08:25:13.082 frame= 1637 fps=506 q=-1.0 Lsize=   11860kB time=00:11:01.30 bitrate= 146.9kbits/s throttle=off speed= 204x    
08:25:13.082 video:10259kB audio:1601kB subtitle:0kB other streams:0kB global headers:0kB muxing overhead: 0.000000%
    Last message repeated 1 times
08:25:13.083 EXIT
08:25:13.083 
